<svg xmlns="http://www.w3.org/2000/svg" viewBox="0 0 553 407"><defs><style>.cls-1{fill:#fff;}</style></defs><title>Asset 11</title><g id="Layer_2" data-name="Layer 2"><g id="Layer_1-2" data-name="Layer 1"><path class="cls-1" d="M372.82,298.58l-37.17,12.8c.05.55.17,1.07.17,1.64,0,13.6-10.72,24.6-23.92,24.6S288,326.62,288,313s10.69-24.58,23.9-24.58a23.74,23.74,0,0,1,20,11.17l37-12.77A56.9,56.9,0,0,0,372.82,298.58Z"/><path class="cls-1" d="M386.89,232l.16.15a55.19,55.19,0,0,0-8.25,9l-1.8-1.75A73.83,73.83,0,0,1,301.89,242a89.62,89.62,0,0,1-85.43-3.79,112.15,112.15,0,0,1-100.21,2A73.91,73.91,0,0,1,77.72,251C34.79,251,0,214,0,168.43,0,132.9,21.13,102.6,50.77,91,64.88,38.45,110.39,0,164.37,0c38.75,0,73.14,19.82,94.69,50.45,1.2-.06,2.41-.08,3.62-.08,28.91,0,54.79,13.8,72.09,35.55.84,0,1.68,0,2.51,0,42.93,0,77.72,37,77.72,82.56A84.53,84.53,0,0,1,386.89,232Z"/><path class="cls-1" d="M422.36,317.14c-22.64,0-41-18.88-41-42.17s18.36-42.16,41-42.16,41,18.88,41,42.16S445,317.14,422.36,317.14Z"/><path class="cls-1" d="M470.16,382.43c0,13.57-10.69,24.57-23.89,24.57s-23.93-11-23.93-24.57a24.62,24.62,0,0,1,12.92-21.73l-6.67-29.9A53.47,53.47,0,0,0,440.33,328l6.65,29.9C459.85,358.3,470.18,369.1,470.16,382.43Z"/><path class="cls-1" d="M444.91,223.84l21.35-37a24.88,24.88,0,0,1-6.92-17.29C459.34,156,470,145,483.24,145s23.93,11,23.93,24.58-10.69,24.6-23.93,24.6a23.3,23.3,0,0,1-6.59-1.07l-21.42,37.08A53.12,53.12,0,0,0,444.91,223.84Z"/><path class="cls-1" d="M553,285.81c0,13.58-10.69,24.57-23.9,24.57-11.92,0-21.75-9-23.55-20.73l-29.74-3A58.05,58.05,0,0,0,477,275c0-.22,0-.44,0-.67l29.76,3a23.93,23.93,0,0,1,22.37-16.1C542.31,261.22,553,272.23,553,285.81Z"/></g></g></svg>