<?xml version="1.0" encoding="utf-8"?>
<!-- Generator: Adobe Illustrator 23.0.2, SVG Export Plug-In . SVG Version: 6.00 Build 0)  -->
<svg version="1.1" id="Layer_1" xmlns="http://www.w3.org/2000/svg" xmlns:xlink="http://www.w3.org/1999/xlink" x="0px" y="0px"
	 viewBox="0 0 1080 1920" style="enable-background:new 0 0 1080 1920;" xml:space="preserve">
<style type="text/css">
	.st0{fill:url(#SVGID_1_);stroke:#000000;stroke-miterlimit:10;}
	.st1{fill:url(#SVGID_2_);}
	.st2{fill:url(#SVGID_3_);}
	.st3{fill:url(#SVGID_4_);}
	.st4{fill:url(#SVGID_5_);}
</style>
<g>
	<g>
		<path d="M-502.4,339c1.9,0,1.9-3,0-3C-504.3,336-504.3,339-502.4,339L-502.4,339z"/>
	</g>
</g>
<linearGradient id="SVGID_1_" gradientUnits="userSpaceOnUse" x1="540.5" y1="1919.5" x2="540.5" y2="-0.5">
	<stop  offset="0" style="stop-color:#15FFEE"/>
	<stop  offset="0.2732" style="stop-color:#15FCEE"/>
	<stop  offset="0.44" style="stop-color:#15F4EF"/>
	<stop  offset="0.5781" style="stop-color:#15E6F1"/>
	<stop  offset="0.7007" style="stop-color:#15D1F4"/>
	<stop  offset="0.813" style="stop-color:#15B7F7"/>
	<stop  offset="0.9162" style="stop-color:#1597FB"/>
	<stop  offset="0.9944" style="stop-color:#1579FF"/>
</linearGradient>
<rect x="0.5" y="-0.5" class="st0" width="1080" height="1920"/>
<g>
	<g id="Layer_1-2_1_">
		<linearGradient id="SVGID_2_" gradientUnits="userSpaceOnUse" x1="102.9335" y1="237.2979" x2="270" y2="237.2979">
			<stop  offset="0" style="stop-color:#15FFEE"/>
			<stop  offset="0.2484" style="stop-color:#17FFEE"/>
			<stop  offset="0.3729" style="stop-color:#1FFDF0"/>
			<stop  offset="0.4699" style="stop-color:#2CFBF2"/>
			<stop  offset="0.5527" style="stop-color:#3FF7F5"/>
			<stop  offset="0.6263" style="stop-color:#57F2F9"/>
			<stop  offset="0.6926" style="stop-color:#75EDFD"/>
			<stop  offset="0.7121" style="stop-color:#7FEBFF"/>
			<stop  offset="0.8662" style="stop-color:#7DEAFF"/>
			<stop  offset="0.9217" style="stop-color:#76E8FF"/>
			<stop  offset="0.9612" style="stop-color:#6BE3FF"/>
			<stop  offset="0.993" style="stop-color:#5ADDFF"/>
			<stop  offset="1" style="stop-color:#55DBFF"/>
		</linearGradient>
		<path class="st1" d="M258.6,285.1L258.6,285.1c-1.2,1.2-2.3,2.6-3.3,4.1l-0.7-0.7c-9.1,6.5-20.7,6.9-30.3,1.1
			c-11,5.9-24,5.3-34.4-1.7c-12.6,7.4-27.5,7.6-40.3,0.9c-4.7,3.2-10,4.8-15.5,4.8c-17.3,0-31.2-16.6-31.2-37
			c0-15.9,8.5-29.5,20.5-34.7c5.7-23.5,24-40.7,45.8-40.7c15.6,0,29.4,8.9,38.1,22.6c0.5,0,1,0,1.5,0c11.6,0,22,6.2,29.1,15.9
			c0.4,0,0.7,0,1,0c17.3,0,31.2,16.6,31.2,37C270,267.5,265.9,277.8,258.6,285.1z"/>
	</g>
</g>
<g>
	<g id="Layer_1-2_2_">
		
			<linearGradient id="SVGID_3_" gradientUnits="userSpaceOnUse" x1="301.9335" y1="1829.202" x2="408" y2="1829.202" gradientTransform="matrix(1 0 0 -1 0 1922)">
			<stop  offset="0" style="stop-color:#15FFEE"/>
			<stop  offset="0.2484" style="stop-color:#17FFEE"/>
			<stop  offset="0.3729" style="stop-color:#1FFDF0"/>
			<stop  offset="0.4699" style="stop-color:#2CFBF2"/>
			<stop  offset="0.5527" style="stop-color:#3FF7F5"/>
			<stop  offset="0.6263" style="stop-color:#57F2F9"/>
			<stop  offset="0.6926" style="stop-color:#75EDFD"/>
			<stop  offset="0.7121" style="stop-color:#7FEBFF"/>
			<stop  offset="0.8662" style="stop-color:#7DEAFF"/>
			<stop  offset="0.9217" style="stop-color:#76E8FF"/>
			<stop  offset="0.9612" style="stop-color:#6BE3FF"/>
			<stop  offset="0.993" style="stop-color:#5ADDFF"/>
			<stop  offset="1" style="stop-color:#55DBFF"/>
		</linearGradient>
		<path class="st2" d="M400.8,127.4L400.8,127.4c-0.8,0.9-1.5,1.9-2.1,2.9l-0.5-0.5c-5.8,4.7-13.1,5-19.2,0.8
			c-7,4.3-15.2,3.8-21.8-1.2c-8,5.3-17.4,5.5-25.6,0.6c-3,2.3-6.4,3.5-9.8,3.5c-11,0-19.8-12-19.8-26.8c0-11.5,5.4-21.4,13-25.1
			c3.6-17,15.2-29.5,29.1-29.5c9.9,0,18.7,6.4,24.2,16.4c0.3,0,0.6,0,0.9,0c7.4,0,14,4.5,18.4,11.5c0.2,0,0.5,0,0.6,0
			c11,0,19.8,12,19.8,26.8C408,114.7,405.4,122.2,400.8,127.4z"/>
	</g>
</g>
<g>
	<g id="Layer_1-2_3_">
		
			<linearGradient id="SVGID_4_" gradientUnits="userSpaceOnUse" x1="713.9335" y1="1628.202" x2="911" y2="1628.202" gradientTransform="matrix(1 0 0 -1 0 1922)">
			<stop  offset="0" style="stop-color:#15FFEE"/>
			<stop  offset="0.2484" style="stop-color:#17FFEE"/>
			<stop  offset="0.3729" style="stop-color:#1FFDF0"/>
			<stop  offset="0.4699" style="stop-color:#2CFBF2"/>
			<stop  offset="0.5527" style="stop-color:#3FF7F5"/>
			<stop  offset="0.6263" style="stop-color:#57F2F9"/>
			<stop  offset="0.6926" style="stop-color:#75EDFD"/>
			<stop  offset="0.7121" style="stop-color:#7FEBFF"/>
			<stop  offset="0.8662" style="stop-color:#7DEAFF"/>
			<stop  offset="0.9217" style="stop-color:#76E8FF"/>
			<stop  offset="0.9612" style="stop-color:#6BE3FF"/>
			<stop  offset="0.993" style="stop-color:#5ADDFF"/>
			<stop  offset="1" style="stop-color:#55DBFF"/>
		</linearGradient>
		<path class="st3" d="M897.6,347.1L897.6,347.1c-1.4,1.4-2.7,2.9-3.9,4.5l-0.9-0.8c-10.7,7.3-24.4,7.7-35.7,1.2
			c-13,6.6-28.3,5.9-40.6-1.9c-14.9,8.2-32.4,8.5-47.6,1c-5.6,3.6-11.9,5.4-18.3,5.4c-20.4,0-36.8-18.5-36.8-41.3
			c0-17.7,10-32.9,24.1-38.7c6.7-26.2,28.3-45.4,54-45.4c18.4,0,34.7,9.9,45,25.3c0.6,0,1.1,0,1.7,0c13.7,0,26,6.9,34.3,17.7
			c0.4,0,0.9,0,1.1,0c20.4,0,36.8,18.5,36.8,41.3C911,327.5,906.1,339,897.6,347.1z"/>
	</g>
</g>
<g>
	<g id="Layer_1-2_4_">
		
			<linearGradient id="SVGID_5_" gradientUnits="userSpaceOnUse" x1="956.9335" y1="1811.202" x2="1063" y2="1811.202" gradientTransform="matrix(1 0 0 -1 0 1922)">
			<stop  offset="0" style="stop-color:#15FFEE"/>
			<stop  offset="0.2484" style="stop-color:#17FFEE"/>
			<stop  offset="0.3729" style="stop-color:#1FFDF0"/>
			<stop  offset="0.4699" style="stop-color:#2CFBF2"/>
			<stop  offset="0.5527" style="stop-color:#3FF7F5"/>
			<stop  offset="0.6263" style="stop-color:#57F2F9"/>
			<stop  offset="0.6926" style="stop-color:#75EDFD"/>
			<stop  offset="0.7121" style="stop-color:#7FEBFF"/>
			<stop  offset="0.8662" style="stop-color:#7DEAFF"/>
			<stop  offset="0.9217" style="stop-color:#76E8FF"/>
			<stop  offset="0.9612" style="stop-color:#6BE3FF"/>
			<stop  offset="0.993" style="stop-color:#5ADDFF"/>
			<stop  offset="1" style="stop-color:#55DBFF"/>
		</linearGradient>
		<path class="st4" d="M1055.8,145.4L1055.8,145.4c-0.8,0.9-1.5,1.9-2.1,2.9l-0.5-0.5c-5.8,4.7-13.1,5-19.2,0.8
			c-7,4.3-15.2,3.8-21.8-1.2c-8,5.3-17.4,5.5-25.6,0.6c-3,2.3-6.4,3.5-9.8,3.5c-11,0-19.8-12-19.8-26.8c0-11.5,5.4-21.4,13-25.1
			c3.6-17,15.2-29.5,29.1-29.5c9.9,0,18.7,6.4,24.2,16.4c0.3,0,0.6,0,0.9,0c7.4,0,14,4.5,18.4,11.5c0.2,0,0.5,0,0.6,0
			c11,0,19.8,12,19.8,26.8C1063,132.7,1060.4,140.2,1055.8,145.4z"/>
	</g>
</g>
</svg>
