<?xml version="1.0" encoding="utf-8"?>
<!-- Generator: Adobe Illustrator 23.0.2, SVG Export Plug-In . SVG Version: 6.00 Build 0)  -->
<svg version="1.1" id="Capa_1" xmlns="http://www.w3.org/2000/svg" xmlns:xlink="http://www.w3.org/1999/xlink" x="0px" y="0px"
	 viewBox="0 0 45.9 45.9" style="enable-background:new 0 0 45.9 45.9;" xml:space="preserve">
<style type="text/css">
	.st0{fill:#0D47A1;}
</style>
<g>
	<g>
		<path class="st0" d="M12.4,22.6c3-6.9,9.9-11.7,17.9-11.7c3.9,0,7.5,1.1,10.6,3.1c0-0.1,0-0.2,0-0.4c0-4.8-3.9-8.7-8.7-8.7
			c-1.7,0-3.3,0.5-4.7,1.4C26,2.6,22.3,0,18.1,0c-4.7,0-8.7,3.2-9.8,7.6c-0.2,0-0.5,0-0.7,0c-4.2,0-7.5,3.4-7.5,7.5
			c0,4.2,3.4,7.5,7.5,7.5C8.3,22.6,10.1,22.6,12.4,22.6z"/>
		<path class="st0" d="M4.1,33.5c-0.9,0-1.5,0.7-1.5,1.6v4.2c0,0.9,0.7,1.6,1.5,1.6c0.9,0,1.5-0.7,1.5-1.6V35
			C5.7,34.2,5,33.5,4.1,33.5z"/>
		<path class="st0" d="M4.1,23c-0.9,0-1.5,0.7-1.5,1.6v4.2c0,0.9,0.7,1.6,1.5,1.6c0.9,0,1.5-0.7,1.5-1.6v-4.2C5.7,23.7,5,23,4.1,23z
			"/>
		<path class="st0" d="M13,39.2H8.8c-0.9,0-1.6,0.7-1.6,1.5c0,0.9,0.7,1.5,1.6,1.5H13c0.9,0,1.6-0.7,1.6-1.5
			C14.6,39.9,13.9,39.2,13,39.2z"/>
		<path class="st0" d="M30.3,14.8c-8.6,0-15.6,7-15.6,15.6s7,15.6,15.6,15.6c8.6,0,15.6-7,15.6-15.6S38.9,14.8,30.3,14.8z
			 M17.9,31.9h4.2c0.2,3.7,1.1,7,2.4,9.5C21,39.5,18.5,36,17.9,31.9z M22.1,28.8h-4.2c0.5-4.1,3-7.6,6.6-9.5
			C23.2,21.7,22.3,25,22.1,28.8z M28.7,41.8c-1.7-1.5-3.2-5.2-3.5-9.8h3.5V41.8z M28.7,28.8h-3.5c0.3-4.7,1.8-8.4,3.5-9.9V28.8z
			 M31.8,41.8v-9.8h3.5C35,36.6,33.5,40.3,31.8,41.8z M31.8,28.8v-9.9c1.7,1.5,3.2,5.1,3.5,9.9H31.8z M42.6,28.8h-4.2
			c-0.2-3.7-1.1-7-2.4-9.5C39.6,21.1,42.1,24.7,42.6,28.8z M36.1,41.4c1.3-2.4,2.2-5.7,2.4-9.5h4.2C42.1,36,39.6,39.5,36.1,41.4z"/>
	</g>
</g>
</svg>
