<svg xmlns="http://www.w3.org/2000/svg" xmlns:xlink="http://www.w3.org/1999/xlink" viewBox="0 0 502.05 338.41"><defs><style>.cls-1{opacity:0.7;}.cls-2{fill:url(#linear-gradient);}.cls-3{fill:#e0e0e0;}.cls-4{opacity:0.1;isolation:isolate;}.cls-5{fill:#6c63ff;}.cls-6{fill:#fdb797;}.cls-7{fill:#333;}.cls-8{fill:url(#linear-gradient-2);}.cls-9{fill:url(#linear-gradient-3);}.cls-10{fill:#252f3e;}.cls-11{fill:#f90;}.cls-12{fill:url(#linear-gradient-4);}.cls-13{fill:#cac9c2;}.cls-14{fill:#fff;}.cls-15{fill:#5072aa;}.cls-16{fill:#4d6796;}.cls-17{fill:#cc4232;}.cls-18{fill:#b23f33;}.cls-19{fill:#ecb02a;}.cls-20{fill:#c79732;}.cls-21{fill:none;}.cls-22{fill:#6762a6;}</style><linearGradient id="linear-gradient" x1="323.97" y1="990.76" x2="323.97" y2="1308.19" gradientTransform="matrix(1, 0, 0, -1, -167.6, 1329.16)" gradientUnits="userSpaceOnUse"><stop offset="0" stop-color="gray" stop-opacity="0.25"/><stop offset="0.54" stop-color="gray" stop-opacity="0.12"/><stop offset="1" stop-color="gray" stop-opacity="0.1"/></linearGradient><linearGradient id="linear-gradient-2" x1="156.36" y1="1128.62" x2="156.36" y2="1206.72" gradientTransform="matrix(1, 0, 0, -1, 0, 1449.94)" xlink:href="#linear-gradient"/><linearGradient id="linear-gradient-3" x1="390.82" y1="1164.29" x2="390.82" y2="1242.39" gradientTransform="matrix(1, 0, 0, -1, 0, 1449.94)" xlink:href="#linear-gradient"/><linearGradient id="linear-gradient-4" x1="335.74" y1="1295.42" x2="335.74" y2="1373.52" gradientTransform="matrix(1, 0, 0, -1, 0, 1449.94)" xlink:href="#linear-gradient"/></defs><title>Asset 4</title><g id="Layer_2" data-name="Layer 2"><g id="Layer_1-2" data-name="Layer 1"><g class="cls-1"><path class="cls-2" d="M171.2,191.24l-.3-.07V180.28c23.57-5.56,41.41-24,45.37-46.81h.15c2.92,0,5.28-4.23,5.28-9.44a12.63,12.63,0,0,0-2.3-7.78,58,58,0,0,0,.32-6.06,59,59,0,0,0-19.51-43.63,37.86,37.86,0,0,0-4.49-11.48c-4.49-7.55-12-15.42-8.93-23.62L167,33.39,166.85,21c-6.16,1.06-8.74,7.87-12.4,12.73C145.65,45.38,128,47,116.32,56.09c-4,3.09-12.89,12.49-11.21,18.65a58.28,58.28,0,0,0-12,35.45,55.38,55.38,0,0,0,.32,6.06,12.63,12.63,0,0,0-2.3,7.78c0,5.22,2.37,9.44,5.28,9.44h.14c4,22.85,21.81,41.25,45.38,46.81v10.89l-.3.07c-6.8-.76-75.44-5.76-60.39,101.94l9.23,32.47,2.06-.07c.63,7.62,7.62,13.31,15.61,12.71A14.34,14.34,0,0,0,121,328c13.07,0,27.84-.08,35.37-.08s22.33,0,35.38.08c2,7.4,9.93,11.84,17.69,9.92a14,14,0,0,0,10.83-12.38l2,.07,9.23-32.47C246.65,185.48,178,190.48,171.2,191.24Z"/></g><rect class="cls-3" y="322.37" width="326.24" height="10.55"/><rect class="cls-3" x="13.83" y="332.92" width="298.58" height="4.31"/><rect class="cls-4" x="13.83" y="332.92" width="298.58" height="1.44"/><path class="cls-4" d="M97.73,317.09v6.08s43.77-.16,58.66-.16,58.66.16,58.66.16v-6.08Z"/><path class="cls-5" d="M215.06,322s-43.78-.16-58.67-.16-58.66.16-58.66.16V245.14c0-30.91,26.26-56,58.66-56h0c32.4,0,58.66,25.05,58.67,56h0Z"/><path class="cls-6" d="M150.84,161.19H162a8.28,8.28,0,0,1,8.47,8.08h0v22.34c0,7.39-6.28,13.38-14,13.38h0c-7.74,0-14-6-14-13.38h0V169.27a8.28,8.28,0,0,1,8.47-8.08Z"/><path class="cls-4" d="M142.36,181.47a61.56,61.56,0,0,0,28.06,0V162.41H142.36Z"/><ellipse class="cls-7" cx="156.39" cy="112.53" rx="61.21" ry="58.4"/><ellipse class="cls-6" cx="156.39" cy="125.91" rx="58.66" ry="55.97"/><path class="cls-7" d="M117.66,60.23c11.28-8.78,28.35-10.35,36.85-21.64,3.54-4.69,6-11.28,12-12.3l.17,12,19.1-1.87c-2.95,7.91,4.28,15.54,8.63,22.84a36.29,36.29,0,0,1,5.1,17.68c-6.63,3.8-14.85-.34-22.24-2.56C170.1,72.23,162.47,72,155,71.81a48.76,48.76,0,0,0-11.52.6,60,60,0,0,0-9.51,3.34c-5.08,2-21.11,9.69-25.83,4.75C102.74,74.9,113.3,63.63,117.66,60.23Z"/><path class="cls-4" d="M120.85,97.84c3.11,1.8,6.77,2.51,10.37,3a95.46,95.46,0,0,0,44.52-4.77c2.33,5.62,8,9.48,14,11.32s12.47,1.93,18.8,2a7.47,7.47,0,0,0,4-.74c2.82-1.82,1.45-6-.19-8.82l-8.17-14.12c-2.42-4.17-4.9-8.43-8.64-11.6-4.69-4-10.92-5.81-17.06-7a100.61,100.61,0,0,0-43.78,1.39C119.52,72.42,99.91,85.75,120.85,97.84Z"/><path class="cls-7" d="M120.85,96.63c3.11,1.79,6.77,2.5,10.37,3a95.6,95.6,0,0,0,44.52-4.78c2.33,5.62,8,9.49,14,11.32s12.47,1.93,18.8,2a7.56,7.56,0,0,0,4-.73c2.82-1.82,1.45-6-.19-8.83l-8.17-14.13c-2.42-4.18-4.9-8.44-8.64-11.6-4.69-4-10.92-5.81-17.06-7a100.76,100.76,0,0,0-43.78,1.4C119.52,71.2,99.91,84.53,120.85,96.63Z"/><ellipse class="cls-6" cx="214.42" cy="125.91" rx="5.1" ry="9.13"/><ellipse class="cls-6" cx="98.37" cy="125.91" rx="5.1" ry="9.13"/><path class="cls-5" d="M170.18,190.92s74.2-11,58.9,98.47l-8.92,31.39-25.51-1S211.23,283.32,201,259,170.18,190.92,170.18,190.92Z"/><path class="cls-5" d="M142.6,190.92s-74.18-11-58.9,98.47l8.92,31.39,25.51-1s-16.58-36.5-6.37-60.84S142.6,190.92,142.6,190.92Z"/><path class="cls-4" d="M110.48,239.17s-5.1,37.6,3.83,48.55Z"/><path class="cls-4" d="M202.3,240.13s5.11,36.64-3.82,47.59Z"/><ellipse class="cls-6" cx="204.19" cy="319.73" rx="14.03" ry="13.38"/><ellipse class="cls-6" cx="108.6" cy="319.73" rx="14.03" ry="13.38"/><g class="cls-1"><path class="cls-8" d="M121,243.23h70.79a10.53,10.53,0,0,1,10.78,10.29V311a10.54,10.54,0,0,1-10.78,10.29H121A10.55,10.55,0,0,1,110.18,311V253.52A10.54,10.54,0,0,1,121,243.23Z"/></g><path class="cls-3" d="M122.67,244.67H190A10.55,10.55,0,0,1,200.82,255v54.63A10.55,10.55,0,0,1,190,319.88H122.67a10.54,10.54,0,0,1-10.78-10.29V255A10.54,10.54,0,0,1,122.67,244.67Z"/><g class="cls-1"><path class="cls-9" d="M355.43,207.55h70.79A10.55,10.55,0,0,1,437,217.84v57.52a10.54,10.54,0,0,1-10.78,10.29H355.43a10.54,10.54,0,0,1-10.79-10.29V217.84A10.55,10.55,0,0,1,355.43,207.55Z"/></g><path class="cls-3" d="M357.14,209H424.5a10.55,10.55,0,0,1,10.79,10.29v54.63a10.55,10.55,0,0,1-10.79,10.29H357.14a10.55,10.55,0,0,1-10.79-10.29V219.29A10.55,10.55,0,0,1,357.14,209Z"/><path class="cls-10" d="M374.94,240.92a6.52,6.52,0,0,0,.27,2.06,11.35,11.35,0,0,0,.77,1.66,1,1,0,0,1,.18.53,1,1,0,0,1-.46.7l-1.52,1a1.19,1.19,0,0,1-.63.21,1.15,1.15,0,0,1-.73-.33,6.43,6.43,0,0,1-.87-1.08,12.81,12.81,0,0,1-.75-1.37,9.1,9.1,0,0,1-7.11,3.19,6.82,6.82,0,0,1-4.84-1.66,6.3,6.3,0,0,1,.41-9.19,9.06,9.06,0,0,1,5.92-1.8,18.4,18.4,0,0,1,2.57.18c.9.12,1.82.3,2.79.51V233.8a4.93,4.93,0,0,0-1.14-3.69c-.75-.72-2.08-1.06-3.95-1.06a11.41,11.41,0,0,0-2.61.29,21.23,21.23,0,0,0-2.61.79,6.61,6.61,0,0,1-.85.3,1.78,1.78,0,0,1-.39.07q-.51,0-.51-.72v-1.13a1.44,1.44,0,0,1,.18-.81,1.79,1.79,0,0,1,.67-.48,14.28,14.28,0,0,1,3-1,15.08,15.08,0,0,1,3.78-.44q4.32,0,6.34,1.87c1.36,1.25,2,3.14,2,5.68v7.49Zm-9.82,3.51a8.38,8.38,0,0,0,2.49-.41,5.44,5.44,0,0,0,2.3-1.48,3.61,3.61,0,0,0,.82-1.48,8,8,0,0,0,.25-2v-1a21.23,21.23,0,0,0-2.23-.39,21.8,21.8,0,0,0-2.28-.14,5.7,5.7,0,0,0-3.6.93,3.2,3.2,0,0,0-.77,4.61,3.53,3.53,0,0,0,3,1.35Zm19.43,2.5a1.38,1.38,0,0,1-.92-.24,1.87,1.87,0,0,1-.5-.9L377.44,228a3.69,3.69,0,0,1-.21-.93.51.51,0,0,1,.44-.58h2.51a1.41,1.41,0,0,1,.94.23,1.94,1.94,0,0,1,.51.9l4,15.29,3.77-15.29a1.69,1.69,0,0,1,.46-.9,1.74,1.74,0,0,1,1-.23h1.94a1.56,1.56,0,0,1,1,.23,1.54,1.54,0,0,1,.46.9l3.83,15.47,4.18-15.47a2.09,2.09,0,0,1,.51-.9,1.63,1.63,0,0,1,.94-.23H406a.54.54,0,0,1,.61.43.38.38,0,0,1,0,.15,2.35,2.35,0,0,1-.05.37,3.86,3.86,0,0,1-.17.58l-5.83,17.84a1.81,1.81,0,0,1-.51.9,1.54,1.54,0,0,1-.92.23H397a1.56,1.56,0,0,1-1-.23,1.68,1.68,0,0,1-.46-.93l-3.75-14.89-3.73,14.87a1.83,1.83,0,0,1-.46.92,1.58,1.58,0,0,1-1,.24Zm31.1.62a16.66,16.66,0,0,1-3.73-.42,11.64,11.64,0,0,1-2.78-.92,1.76,1.76,0,0,1-.75-.65,1.43,1.43,0,0,1-.15-.64v-1.18c0-.48.19-.71.56-.71a1.54,1.54,0,0,1,.43.06l.61.23a13,13,0,0,0,2.66.81,14.72,14.72,0,0,0,2.88.28,6.87,6.87,0,0,0,3.54-.76,2.48,2.48,0,0,0,1.26-2.2,2.18,2.18,0,0,0-.65-1.61,6.17,6.17,0,0,0-2.45-1.2l-3.53-1a7.4,7.4,0,0,1-3.87-2.36,5.36,5.36,0,0,1-1.21-3.35,4.93,4.93,0,0,1,.65-2.56,6.09,6.09,0,0,1,1.75-1.9,7.92,7.92,0,0,1,2.52-1.2,11.1,11.1,0,0,1,3-.39,12.63,12.63,0,0,1,1.63.1c.55.06,1.06.16,1.57.25a10.67,10.67,0,0,1,1.38.37,6,6,0,0,1,1,.42,1.93,1.93,0,0,1,.72.58,1.15,1.15,0,0,1,.22.76v1.08c0,.48-.19.74-.55.74a2.6,2.6,0,0,1-.92-.28,11.75,11.75,0,0,0-4.65-.9,6.47,6.47,0,0,0-3.22.65,2.22,2.22,0,0,0-1.14,2,2.13,2.13,0,0,0,.73,1.64,7.27,7.27,0,0,0,2.66,1.27l3.44,1a7.39,7.39,0,0,1,3.75,2.22,5,5,0,0,1,1.11,3.23,5.68,5.68,0,0,1-.63,2.68,6.27,6.27,0,0,1-1.77,2,7.81,7.81,0,0,1-2.69,1.3,12.25,12.25,0,0,1-3.46.48Z"/><path class="cls-11" d="M420.22,258.76c-8,5.61-19.53,8.59-29.47,8.59a54.79,54.79,0,0,1-36-13.09c-.75-.65-.07-1.53.82-1A74.55,74.55,0,0,0,419.06,257c1.33-.58,2.47.83,1.16,1.75Z"/><path class="cls-11" d="M423.54,255.17c-1-1.25-6.73-.6-9.32-.3-.77.09-.89-.55-.19-1,4.55-3.05,12-2.17,12.9-1.15s-.24,8.19-4.5,11.57c-.66.53-1.29.25-1-.44C422.4,261.54,424.55,256.39,423.54,255.17Z"/><g class="cls-1"><path class="cls-12" d="M300.35,76.43h70.79a10.54,10.54,0,0,1,10.78,10.28v57.53a10.54,10.54,0,0,1-10.78,10.28H300.35a10.54,10.54,0,0,1-10.79-10.28V86.71A10.54,10.54,0,0,1,300.35,76.43Z"/></g><path class="cls-3" d="M302.06,77.87h67.36a10.55,10.55,0,0,1,10.79,10.29v54.63a10.55,10.55,0,0,1-10.79,10.29H302.06a10.55,10.55,0,0,1-10.79-10.29V88.16A10.55,10.55,0,0,1,302.06,77.87Z"/><path class="cls-13" d="M323.37,135.06l-12-19.76,12-19.77h23.9l12,19.77-12,19.76Z"/><path class="cls-14" d="M335.73,124.33a8.9,8.9,0,1,1,9.32-8.89,9.11,9.11,0,0,1-9.32,8.89Z"/><path class="cls-15" d="M354.47,88.93a5.18,5.18,0,0,0-4-2.2H321a5.18,5.18,0,0,0-4,2.2l-8.59,14.22a4.55,4.55,0,0,0,.54,2.58l5.82,9.5,10.4-17.14h32.88a5,5,0,0,1,2.41.72l-6-9.88Z"/><path class="cls-16" d="M308.78,102.54l-.38.62a4.57,4.57,0,0,0,.54,2.58l5.82,9.5,3.1-5.11-9.09-7.6Z"/><path class="cls-14" d="M321.77,94a1.72,1.72,0,1,1,1.8-1.71h0a1.76,1.76,0,0,1-1.8,1.71Zm29.46-1.71a1.67,1.67,0,0,1-3.33,0v0a1.67,1.67,0,0,1,3.33,0Z"/><path class="cls-17" d="M369.19,113.27l-8.74-14.46a5,5,0,0,0-2.41-.72H346.19l10.26,17.25-16.23,27.35a4.63,4.63,0,0,1-1.67,1.53h11.93a5.18,5.18,0,0,0,4-2.21l14.73-24.34a4.64,4.64,0,0,0,0-4.4Z"/><path class="cls-18" d="M360.84,99.47l-.39-.65A5,5,0,0,0,358,98.1H346.19l3.09,5.18,11.56-3.81Z"/><path class="cls-14" d="M349.56,140a1.72,1.72,0,1,1,1.8-1.71h0a1.76,1.76,0,0,1-1.8,1.71Zm14-22.86a1.72,1.72,0,1,1,1.8-1.71h0a1.76,1.76,0,0,1-1.8,1.71Z"/><path class="cls-19" d="M325.4,132.58,309,105.74a4.57,4.57,0,0,1-.54-2.58l-6.12,10.12a4.69,4.69,0,0,0,0,4.4L317,142a5.16,5.16,0,0,0,4,2.2h17.53a4.61,4.61,0,0,0,1.67-1.52l6-10.12H325.4Z"/><path class="cls-20" d="M337.54,144.22h1a4.48,4.48,0,0,0,1.67-1.53l6-10.12h-6.39l-2.3,11.64Z"/><path class="cls-14" d="M321.77,140a1.72,1.72,0,1,1,1.8-1.71h0a1.76,1.76,0,0,1-1.8,1.71Zm-14-22.86a1.72,1.72,0,1,1,1.8-1.71h0a1.76,1.76,0,0,1-1.8,1.71Z"/><image width="110" height="111" transform="translate(129 257.97) scale(0.45 0.45)" xlink:href="../../../../Downloads/imageedit_2_7773970667.png"/><path class="cls-3" d="M409.14,0H476.5a10.55,10.55,0,0,1,10.79,10.29V64.92A10.55,10.55,0,0,1,476.5,75.21H409.14a10.55,10.55,0,0,1-10.79-10.29V10.29A10.55,10.55,0,0,1,409.14,0Z"/><path class="cls-21" d="M502.05,71.09H384.73"/><path class="cls-22" d="M426.39,68.54V62.9a.58.58,0,0,0-.57-.58h-.1a6.58,6.58,0,0,0-2.44.51v5.69h-1.66V58.08h1.66v3.45A8.38,8.38,0,0,1,426,61a1.87,1.87,0,0,1,2.08,2.1v5.43h-1.64Zm4.76-3.41c.05,1.89.44,2.26,1.66,2.26a8.82,8.82,0,0,0,2.87-.61L436,68a8.15,8.15,0,0,1-3.26.76c-2.77,0-3.2-1.45-3.2-3.77a12.33,12.33,0,0,1,.41-3.48,10,10,0,0,1,3.34-.48c2.28,0,3,1.2,3,3.31v.8h-5.05Zm2.1-2.79a11.43,11.43,0,0,0-1.94.13,8.2,8.2,0,0,0-.18,1.56h3.47C434.6,62.93,434.39,62.34,433.25,62.34Zm6.07.51v5.69h-1.67v-6.4a10.1,10.1,0,0,1,3.86-1v1.32a7.71,7.71,0,0,0-2.19.41Zm6.57,5.88c-2.49,0-3.61-1.17-3.61-3.83,0-2.81,1.48-3.88,3.61-3.88,2.48,0,3.6,1.16,3.6,3.82C449.49,67.66,448,68.73,445.89,68.73Zm0-6.39c-1.28,0-2,.7-2,2.56,0,2,.6,2.49,2,2.49s2-.69,2-2.55c0-2-.6-2.5-2-2.5Zm11.62,6.2h-2a10.28,10.28,0,0,0-2.07-3.38h-.88v3.38H451V58.08h1.67v6h.77a9.66,9.66,0,0,0,2-2.89h1.87a12.54,12.54,0,0,1-2.37,3.2,22.07,22.07,0,0,1,2.67,4.13Zm3.12.18a1.87,1.87,0,0,1-2.08-2.1V61.21h1.65v5.62a.56.56,0,0,0,.57.57h.09a7.06,7.06,0,0,0,2.53-.52V61.21h1.68v6.37a9.26,9.26,0,0,1-4.41,1.15Zm-.74-13.31H426.76a5,5,0,0,1-5.14-4.89h0V8.94A5,5,0,0,1,426.75,4h33.16a5,5,0,0,1,5.16,4.88v41.6a5,5,0,0,1-5.13,4.9h-.05Z"/><path class="cls-14" d="M448.85,48.35V28s1.39-4.89-17.14,2c0,.09,0-18.87,0-18.87l6.06,0V23.18s16.95-6.36,16.95,4.82V48.34h-5.84Zm3.45-30h-6.43a37.51,37.51,0,0,0,4.4-7.32h6.64a30.23,30.23,0,0,1-4.62,7.32ZM431.79,48.31V36.69l6.09,5.81Z"/></g></g></svg>